<?xml version="1.0" encoding="UTF-8" standalone="no"?>
<svg width="50px" height="328px" viewBox="0 0 50 328" version="1.1" xmlns="http://www.w3.org/2000/svg" xmlns:xlink="http://www.w3.org/1999/xlink" xmlns:sketch="http://www.bohemiancoding.com/sketch/ns">
    <!-- Generator: Sketch 3.1 (8751) - http://www.bohemiancoding.com/sketch -->
    <title>icon-sprite</title>
    <desc>Created with Sketch.</desc>
    <defs>
        <path id="path-1" d="M0,0 L17.2871094,0 L17.2871094,17.2871094 L0,17.2871094 L0,0 L0,0 Z"></path>
        <path id="path-3" d="M0,0 L17.2871094,0 L17.2871094,17.2871094 L0,17.2871094 L0,0 L0,0 Z"></path>
    </defs>
    <g id="Page-1" stroke="none" stroke-width="1" fill="none" fill-rule="evenodd" sketch:type="MSPage">
        <g id="icon-sprite" sketch:type="MSArtboardGroup">
            <g id="Foreground" sketch:type="MSLayerGroup" transform="translate(0.000000, 5.000000)">
                <rect id="Rectangle-14" fill="#DF5543" sketch:type="MSShapeGroup" x="2" y="56" width="17" height="17"></rect>
                <path d="M9,9.16666667 L9,11 L18,5.5 L9,0 L9,1.83333333 L15,5.5 L9,9.16666667 L9,9.16666667 Z" id="Triangle-1" fill="#2189C1" sketch:type="MSShapeGroup"></path>
                <path d="M3,11 L3,0 L12,5.5 L3,11 L3,11 Z" id="Triangle-1" fill="#2189C1" sketch:type="MSShapeGroup"></path>
                <path d="M14.574992,63.415969 L14.574992,61.490961 L13.35582,61.490961 L13.35582,63.415969 L11.430811,63.415969 L11.430811,64.635141 L13.35582,64.635141 L13.35582,66.56015 L14.574992,66.56015 L14.574992,64.635141 L16.5,64.635141 L16.5,63.415969 L14.574992,63.415969 L14.574992,63.415969 Z M9.602053,61.19836 C9.892088,62.216047 9.454469,63.281219 8.757616,63.47757 C8.678049,63.499386 8.595916,63.510936 8.511215,63.510936 C7.873396,63.510936 7.24071,62.865417 7.007142,61.976063 C6.876241,61.476844 6.886508,61.039226 7.036659,60.619574 C7.184243,60.206339 7.449894,59.927854 7.783562,59.83417 C7.863129,59.81107 7.946546,59.79952 8.029963,59.79952 C8.799967,59.79952 9.295335,60.119072 9.602053,61.19836 C9.602053,61.19836 9.295335,60.119072 9.602053,61.19836 L9.602053,61.19836 L9.602053,61.19836 Z M10.37334,67.598371 C10.429807,68.501841 9.657237,69.166611 8.498382,69.251311 C7.32156,69.337295 6.351356,68.807276 6.294889,67.906372 C6.267939,67.472604 6.457873,67.047818 6.831325,66.7103 C7.20991,66.367649 7.728379,66.157181 8.293048,66.114831 C8.359781,66.110981 8.426515,66.108414 8.491965,66.108414 C9.58152,66.108414 10.31944,66.7488 10.37334,67.598371 C10.37334,67.598371 10.31944,66.7488 10.37334,67.598371 L10.37334,67.598371 L10.37334,67.598371 Z M5.609586,61.815646 C5.609586,62.7743 5.929137,63.46602 6.56054,63.872838 C7.077726,64.205223 7.677045,64.255273 7.988896,64.255273 C8.064613,64.255273 8.12493,64.252706 8.16728,64.248856 C8.16728,64.248856 8.068463,64.893092 8.545865,65.530912 L8.524049,65.529628 C7.697578,65.529628 5,65.702879 5,67.920489 C5,70.177882 7.476844,70.292099 7.97478,70.292099 C8.01328,70.292099 8.03638,70.290816 8.03638,70.290816 C8.041513,70.292099 8.077447,70.293383 8.137764,70.293383 C8.457315,70.293383 9.281219,70.252316 10.047372,69.880147 C11.040676,69.398895 11.545028,68.559592 11.545028,67.387903 C11.545028,66.254715 10.776308,65.580962 10.216773,65.08816 C9.874121,64.787859 9.578953,64.528624 9.578953,64.27709 C9.578953,64.020422 9.794554,63.827921 10.067905,63.582803 C10.509374,63.187535 10.926459,62.624149 10.926459,61.560261 C10.926459,60.62599 10.804542,59.998438 10.057639,59.599319 C10.135922,59.559536 10.410557,59.531302 10.547874,59.512052 C10.952126,59.456869 11.545028,59.393985 11.545028,59.062884 L11.545028,59 L8.593349,59 C8.563832,59 5.609586,59.110367 5.609586,61.815646 L5.609586,61.815646 L5.609586,61.815646 Z" id="Fill-199" fill="#FFFFFF" sketch:type="MSShapeGroup"></path>
                <g id="feed_rss_black_plum_icon_news_really_simple_syndication" transform="translate(4.000000, 79.000000)" fill="#F89614" sketch:type="MSShapeGroup">
                    <circle id="circle26" cx="1.5" cy="11.5" r="1.5"></circle>
                    <path d="M6.36206897,13 C6.36206897,9.48632633 3.51367367,6.63793103 0,6.63793103 L0,4 C4.97056275,4 9,8.02943725 9,13 L6.36206897,13 L6.36206897,13 Z" id="path28"></path>
                    <path d="M10.4,13 C10.4,7.2562386 5.7437614,2.6 0,2.6 L0,0 C7.17970175,1.58349524e-15 13,5.82029825 13,13 C13,13 13,5.82029825 13,13 L10.4,13 L10.4,13 Z" id="path30"></path>
                </g>
                <path d="M7.857143,51.938735 C8.332984,51.72457 8.381342,51.445659 8.812694,51.430717 C9.305944,51.410795 9.708281,51.264698 10.263429,51.160106 C10.756679,51.067135 11.640661,50.638807 12.418255,50.58236 C13.072053,50.537535 14.366109,50.612244 14.714286,51.155125 C13.46085,51.869007 11.959823,52.285714 10.348539,52.285714 C9.478098,52.285714 8.642474,52.16286 7.857143,51.938735 C7.857143,51.938735 8.642474,52.16286 7.857143,51.938735 L7.857143,51.938735 L7.857143,51.938735 Z M8.9344,37.714286 C8.747242,38.062515 8.254522,38.204724 7.954689,38.46544 C7.301548,39.028806 7.020812,38.952232 6.669415,39.491897 C6.316108,40.033385 5.174067,40.81371 5.174067,41.205696 C5.174067,41.597683 5.750817,42.05895 6.039192,41.969613 C6.327566,41.878454 7.087654,41.883924 7.53454,42.033425 C7.981425,42.18475 11.271955,42.336075 10.223493,44.990641 C9.891193,45.834778 8.43595,45.692569 8.048267,47.090957 C7.990974,47.295154 7.788539,48.172109 7.77517,48.45835 C7.752253,48.901386 8.103651,50.571429 7.656765,50.571429 C7.20606,50.571429 5.997177,49.078235 5.997177,48.80658 C5.997177,48.536747 5.682065,47.586865 5.682065,46.773722 C5.682065,45.960579 4.234461,45.975164 4.234461,44.894012 C4.234461,43.918605 5.019375,43.433636 4.843677,42.966899 C4.669888,42.501985 3.289126,42.485577 2.714286,42.429058 C3.718824,39.940402 6.085026,38.091686 8.9344,37.714286 C8.9344,37.714286 6.085026,38.091686 8.9344,37.714286 L8.9344,37.714286 L8.9344,37.714286 Z M17.285714,45.024284 C17.285714,46.787273 16.733662,48.414647 15.813575,49.714286 C15.553173,49.492029 15.275411,48.896832 15.535813,48.279032 C15.797951,47.657466 15.867391,46.218445 15.808367,45.659035 C15.749343,45.099626 15.481997,43.751015 14.752871,43.73783 C14.027217,43.726529 13.527246,43.464717 13.094978,42.530484 C12.197459,40.582909 14.778911,40.208086 13.881392,39.12882 C13.62967,38.827455 12.334605,40.37572 12.143643,38.311366 C12.131491,38.164451 12.261692,37.944077 12.435293,37.714286 C15.251107,38.740812 17.285714,41.628271 17.285714,45.024284 C17.285714,45.024284 17.285714,41.628271 17.285714,45.024284 L17.285714,45.024284 L17.285714,45.024284 Z M10,36 C5.036875,36 1,40.036875 1,45 C1,49.963125 5.036875,54 10,54 C14.963125,54 19,49.963125 19,45 C19,40.036875 14.963125,36 10,36 L10,36 L10,36 Z" id="Fill-95" fill="#2189C1" sketch:type="MSShapeGroup"></path>
                <path d="M20.292935,18.615024 C19.53439,18.950663 18.719906,19.178898 17.867382,19.27959 C18.737807,18.75823 19.409085,17.93032 19.724586,16.943541 C18.907864,17.426861 18.003876,17.780401 17.04171,17.968359 C16.271977,17.147162 15.173318,16.634753 13.958305,16.634753 C11.626731,16.634753 9.735964,18.52552 9.735964,20.859331 C9.735964,21.190495 9.771765,21.512709 9.845606,21.821497 C6.33482,21.644727 3.222326,19.964294 1.139126,17.408961 C0.776635,18.031012 0.568539,18.75823 0.568539,19.532438 C0.568539,20.995825 1.313658,22.289154 2.445881,23.047699 C1.754464,23.025323 1.103324,22.835127 0.532738,22.519627 L0.532738,22.571091 C0.532738,24.61849 1.989412,26.325775 3.920456,26.712879 C3.566916,26.809095 3.193238,26.86056 2.808371,26.86056 C2.535385,26.86056 2.271349,26.835946 2.014025,26.784482 C2.551048,28.462677 4.110651,29.684404 5.958904,29.717968 C4.513418,30.852428 2.692016,31.525944 0.713983,31.525944 C0.373868,31.525944 0.035992,31.505806 -0.292935,31.467767 C1.575457,32.66488 3.79515,33.365247 6.180426,33.365247 C13.949354,33.365247 18.198546,26.929925 18.198546,21.347127 C18.198546,21.165882 18.194071,20.982399 18.185121,20.801154 C19.010793,20.205954 19.726823,19.463072 20.292935,18.615024" id="Fill-211" fill="#2189C1" sketch:type="MSShapeGroup"></path>
                <g id="Imported-Layers" transform="translate(1.712891, 116.000000)">
                    <g id="Group-3" fill="#3C5A98" sketch:type="MSShapeGroup">
                        <path d="M17.2871094,16.2992746 C17.2871094,16.8423367 16.8423367,17.2871094 16.2992746,17.2871094 L0.987834821,17.2871094 C0.444772628,17.2871094 0,16.8423367 0,16.2992746 L0,0.987834821 C0,0.444772628 0.444772628,0 0.987834821,0 L16.2992746,0 C16.8423367,0 17.2871094,0.444772628 17.2871094,0.987834821 C17.2871094,0.987834821 17.2871094,0.444772628 17.2871094,0.987834821 L17.2871094,16.2992746 L17.2871094,16.2992746 Z" id="Fill-1"></path>
                    </g>
                    <g id="Clip-5" sketch:type="MSShapeGroup">
                        <path d="M0,0 L17.2871094,0 L17.2871094,17.2871094 L0,17.2871094 L0,0 L0,0 Z" id="path-1"></path>
                    </g>
                    <g id="Fill-4-Clipped">
                        <mask id="mask-2" sketch:name="path-1" fill="white">
                            <use xlink:href="#path-1"></use>
                        </mask>
                        <g id="path-1"></g>
                        <path d="M16.0523158,16.0523158 L1.23479353,16.0523158 L1.23479353,13.5827288 L16.0523158,13.5827288 L16.0523158,16.0523158 L16.0523158,16.0523158 Z" id="Fill-4" fill="#6D84B3" sketch:type="MSShapeGroup" mask="url(#mask-2)"></path>
                    </g>
                    <g id="Fill-6-Clipped">
                        <mask id="mask-4" sketch:name="path-1" fill="white">
                            <use xlink:href="#path-3"></use>
                        </mask>
                        <g id="path-1"></g>
                        <path d="M9.87834821,16.0523158 L9.87834821,9.69695705 L8.1979177,9.69695705 L8.1979177,7.40876116 L9.87834821,7.40876116 L9.87834821,5.45432997 C9.87834821,3.91849378 10.8709987,2.50811261 13.1583303,2.50811261 C14.0844254,2.50811261 14.7692419,2.59689427 14.7692419,2.59689427 L14.7152814,4.73370446 C14.7152814,4.73370446 14.0168822,4.7269131 13.2547676,4.7269131 C12.4299256,4.7269131 12.2978027,5.10698255 12.2978027,5.73796204 L12.2978027,7.40876116 L14.780849,7.40876116 L14.6728045,9.69695705 L12.2978027,9.69695705 L12.2978027,16.0523158 L9.87834821,16.0523158 L9.87834821,16.0523158 Z" id="Fill-6" fill="#FFFFFF" sketch:type="MSShapeGroup" mask="url(#mask-4)"></path>
                    </g>
                </g>
                <g id="Rectangle-14-+-Fill-199" transform="translate(22.000000, 56.000000)" sketch:type="MSShapeGroup">
                    <rect id="Rectangle-14" fill="#7C7C7C" x="0" y="0" width="17" height="17"></rect>
                    <path d="M12.574992,7.415969 L12.574992,5.490961 L11.35582,5.490961 L11.35582,7.415969 L9.430811,7.415969 L9.430811,8.635141 L11.35582,8.635141 L11.35582,10.56015 L12.574992,10.56015 L12.574992,8.635141 L14.5,8.635141 L14.5,7.415969 L12.574992,7.415969 L12.574992,7.415969 Z M7.602053,5.19836 C7.892088,6.216047 7.454469,7.281219 6.757616,7.47757 C6.678049,7.499386 6.595916,7.510936 6.511215,7.510936 C5.873396,7.510936 5.24071,6.865417 5.007142,5.976063 C4.876241,5.476844 4.886508,5.039226 5.036659,4.619574 C5.184243,4.206339 5.449894,3.927854 5.783562,3.83417 C5.863129,3.81107 5.946546,3.79952 6.029963,3.79952 C6.799967,3.79952 7.295335,4.119072 7.602053,5.19836 C7.602053,5.19836 7.295335,4.119072 7.602053,5.19836 L7.602053,5.19836 L7.602053,5.19836 Z M8.37334,11.598371 C8.429807,12.501841 7.657237,13.166611 6.498382,13.251311 C5.32156,13.337295 4.351356,12.807276 4.294889,11.906372 C4.267939,11.472604 4.457873,11.047818 4.831325,10.7103 C5.20991,10.367649 5.728379,10.157181 6.293048,10.114831 C6.359781,10.110981 6.426515,10.108414 6.491965,10.108414 C7.58152,10.108414 8.31944,10.7488 8.37334,11.598371 C8.37334,11.598371 8.31944,10.7488 8.37334,11.598371 L8.37334,11.598371 L8.37334,11.598371 Z M3.609586,5.815646 C3.609586,6.7743 3.929137,7.46602 4.56054,7.872838 C5.077726,8.205223 5.677045,8.255273 5.988896,8.255273 C6.064613,8.255273 6.12493,8.252706 6.16728,8.248856 C6.16728,8.248856 6.068463,8.893092 6.545865,9.530912 L6.524049,9.529628 C5.697578,9.529628 3,9.702879 3,11.920489 C3,14.177882 5.476844,14.292099 5.97478,14.292099 C6.01328,14.292099 6.03638,14.290816 6.03638,14.290816 C6.041513,14.292099 6.077447,14.293383 6.137764,14.293383 C6.457315,14.293383 7.281219,14.252316 8.047372,13.880147 C9.040676,13.398895 9.545028,12.559592 9.545028,11.387903 C9.545028,10.254715 8.776308,9.580962 8.216773,9.08816 C7.874121,8.787859 7.578953,8.528624 7.578953,8.27709 C7.578953,8.020422 7.794554,7.827921 8.067905,7.582803 C8.509374,7.187535 8.926459,6.624149 8.926459,5.560261 C8.926459,4.62599 8.804542,3.998438 8.057639,3.599319 C8.135922,3.559536 8.410557,3.531302 8.547874,3.512052 C8.952126,3.456869 9.545028,3.393985 9.545028,3.062884 L9.545028,3 L6.593349,3 C6.563832,3 3.609586,3.110367 3.609586,5.815646 L3.609586,5.815646 L3.609586,5.815646 Z" id="Fill-199" fill="#FFFFFF"></path>
                </g>
                <g id="feed_rss_black_plum_icon_news_really_simple_syndication" transform="translate(24.000000, 79.000000)" fill="#7C7C7C" sketch:type="MSShapeGroup">
                    <circle id="circle26" cx="1.5" cy="11.5" r="1.5"></circle>
                    <path d="M6.36206897,13 C6.36206897,9.48632633 3.51367367,6.63793103 0,6.63793103 L0,4 C4.97056275,4 9,8.02943725 9,13 L6.36206897,13 L6.36206897,13 Z" id="path28"></path>
                    <path d="M0,2.6 L0,0 C7.17970175,1.58349524e-15 13,5.82029825 13,13 L10.4,13 C10.4,7.2562386 5.7437614,2.6 0,2.6 L0,2.6 Z" id="path30"></path>
                </g>
                <g id="Triangle-1-+-Triangle-1" transform="translate(23.000000, 0.000000)" fill="#7C7C7C" sketch:type="MSShapeGroup">
                    <path d="M6,9.16666667 L6,11 L15,5.5 L6,0 L6,1.83333333 L12,5.5 L6,9.16666667 L6,9.16666667 Z" id="Triangle-1"></path>
                    <path d="M0,11 L1.45338287e-15,0 L9,5.5 L0,11 L0,11 Z" id="Triangle-1"></path>
                </g>
                <path d="M27.857143,51.938735 C28.332984,51.72457 28.381342,51.445659 28.812694,51.430717 C29.305944,51.410795 29.708281,51.264698 30.263429,51.160106 C30.756679,51.067135 31.640661,50.638807 32.418255,50.58236 C33.072053,50.537535 34.366109,50.612244 34.714286,51.155125 C33.46085,51.869007 31.959823,52.285714 30.348539,52.285714 C29.478098,52.285714 28.642474,52.16286 27.857143,51.938735 C27.857143,51.938735 28.642474,52.16286 27.857143,51.938735 L27.857143,51.938735 L27.857143,51.938735 Z M28.9344,37.714286 C28.747242,38.062515 28.254522,38.204724 27.954689,38.46544 C27.301548,39.028806 27.020812,38.952232 26.669415,39.491897 C26.316108,40.033385 25.174067,40.81371 25.174067,41.205696 C25.174067,41.597683 25.750817,42.05895 26.039192,41.969613 C26.327566,41.878454 27.087654,41.883924 27.53454,42.033425 C27.981425,42.18475 31.271955,42.336075 30.223493,44.990641 C29.891193,45.834778 28.43595,45.692569 28.048267,47.090957 C27.990974,47.295154 27.788539,48.172109 27.77517,48.45835 C27.752253,48.901386 28.103651,50.571429 27.656765,50.571429 C27.20606,50.571429 25.997177,49.078235 25.997177,48.80658 C25.997177,48.536747 25.682065,47.586865 25.682065,46.773722 C25.682065,45.960579 24.234461,45.975164 24.234461,44.894012 C24.234461,43.918605 25.019375,43.433636 24.843677,42.966899 C24.669888,42.501985 23.289126,42.485577 22.714286,42.429058 C23.718824,39.940402 26.085026,38.091686 28.9344,37.714286 C28.9344,37.714286 26.085026,38.091686 28.9344,37.714286 L28.9344,37.714286 L28.9344,37.714286 Z M37.285714,45.024284 C37.285714,46.787273 36.733662,48.414647 35.813575,49.714286 C35.553173,49.492029 35.275411,48.896832 35.535813,48.279032 C35.797951,47.657466 35.867391,46.218445 35.808367,45.659035 C35.749343,45.099626 35.481997,43.751015 34.752871,43.73783 C34.027217,43.726529 33.527246,43.464717 33.094978,42.530484 C32.197459,40.582909 34.778911,40.208086 33.881392,39.12882 C33.62967,38.827455 32.334605,40.37572 32.143643,38.311366 C32.131491,38.164451 32.261692,37.944077 32.435293,37.714286 C35.251107,38.740812 37.285714,41.628271 37.285714,45.024284 C37.285714,45.024284 37.285714,41.628271 37.285714,45.024284 L37.285714,45.024284 L37.285714,45.024284 Z M30,36 C25.036875,36 21,40.036875 21,45 C21,49.963125 25.036875,54 30,54 C34.963125,54 39,49.963125 39,45 C39,40.036875 34.963125,36 30,36 L30,36 L30,36 Z" id="Fill-95" fill="#7C7C7C" sketch:type="MSShapeGroup"></path>
                <path d="M40.292935,18.615024 C39.53439,18.950663 38.719906,19.178898 37.867382,19.27959 C38.737807,18.75823 39.409085,17.93032 39.724586,16.943541 C38.907864,17.426861 38.003876,17.780401 37.04171,17.968359 C36.271977,17.147162 35.173318,16.634753 33.958305,16.634753 C31.626731,16.634753 29.735964,18.52552 29.735964,20.859331 C29.735964,21.190495 29.771765,21.512709 29.845606,21.821497 C26.33482,21.644727 23.222326,19.964294 21.139126,17.408961 C20.776635,18.031012 20.568539,18.75823 20.568539,19.532438 C20.568539,20.995825 21.313658,22.289154 22.445881,23.047699 C21.754464,23.025323 21.103324,22.835127 20.532738,22.519627 L20.532738,22.571091 C20.532738,24.61849 21.989412,26.325775 23.920456,26.712879 C23.566916,26.809095 23.193238,26.86056 22.808371,26.86056 C22.535385,26.86056 22.271349,26.835946 22.014025,26.784482 C22.551048,28.462677 24.110651,29.684404 25.958904,29.717968 C24.513418,30.852428 22.692016,31.525944 20.713983,31.525944 C20.373868,31.525944 20.035992,31.505806 19.707065,31.467767 C21.575457,32.66488 23.79515,33.365247 26.180426,33.365247 C33.949354,33.365247 38.198546,26.929925 38.198546,21.347127 C38.198546,21.165882 38.194071,20.982399 38.185121,20.801154 C39.010793,20.205954 39.726823,19.463072 40.292935,18.615024" id="Fill-211" fill="#7C7C7C" sketch:type="MSShapeGroup"></path>
                <g id="Group-3" transform="translate(21.712891, 116.000000)" fill="#7C7C7C" sketch:type="MSShapeGroup">
                    <path d="M17.2871094,16.2992746 C17.2871094,16.8423367 16.8423367,17.2871094 16.2992746,17.2871094 L0.987834821,17.2871094 C0.444772628,17.2871094 0,16.8423367 0,16.2992746 L0,0.987834821 C0,0.444772628 0.444772628,0 0.987834821,0 L16.2992746,0 C16.8423367,0 17.2871094,0.444772628 17.2871094,0.987834821 C17.2871094,0.987834821 17.2871094,0.444772628 17.2871094,0.987834821 L17.2871094,16.2992746 L17.2871094,16.2992746 Z" id="Fill-1"></path>
                </g>
                <path d="M31.591239,132.052316 L31.591239,125.696957 L29.910808,125.696957 L29.910808,123.408761 L31.591239,123.408761 L31.591239,121.45433 C31.591239,119.918494 32.583889,118.508113 34.871221,118.508113 C35.797316,118.508113 36.482133,118.596894 36.482133,118.596894 L36.428172,120.733704 C36.428172,120.733704 35.729773,120.726913 34.967658,120.726913 C34.142816,120.726913 34.010693,121.106983 34.010693,121.737962 L34.010693,123.408761 L36.49374,123.408761 L36.385695,125.696957 L34.010693,125.696957 L34.010693,132.052316 L31.591239,132.052316 L31.591239,132.052316 Z" id="Fill-6" fill="#FFFFFF" sketch:type="MSShapeGroup"></path>
                <path d="M8.106557,145.460938 L8.106557,140.5625 L13.012295,143 L8.106557,145.460938 L8.106557,145.460938 Z M10,137 C1,137 1,137 1,143 C1,149 1,149 10,149 C19,149 19,148.953125 19,143 C19,137.046875 19,137 10,137 L10,137 L10,137 Z" id="Fill-1" fill="#2189C1" sketch:type="MSShapeGroup"></path>
                <path d="M28.106557,145.460938 L28.106557,140.5625 L33.012295,143 L28.106557,145.460938 L28.106557,145.460938 Z M30,137 C21,137 21,137 21,143 C21,149 21,149 30,149 C39,149 39,148.953125 39,143 C39,137.046875 39,137 30,137 L30,137 L30,137 Z" id="Fill-1" fill="#7C7C7C" sketch:type="MSShapeGroup"></path>
                <path d="M6.484765,172.162988 L2.551172,166.928809 C2.263581,166.315007 1.936046,166.239979 2.579733,165.775178 C3.224679,165.309776 3.194475,165.766876 3.782275,166.180078 L7.211428,170.717285 L13.295824,159.656959 C13.722781,159.003957 13.694079,158.987988 14.380567,159.394189 C15.066005,159.800991 15.107524,159.749669 14.680567,160.403271 L7.878174,172.12041 C7.623678,172.510411 7.233667,172.342598 7.211428,172.342598 C6.754888,172.342598 6.76213,172.512189 6.484765,172.162988 L6.484765,172.162988 Z" id="Imported-Layers" opacity="0.703338068" fill="#000000" sketch:type="MSShapeGroup"></path>
                <path d="M15,189 L13.051248,189 L13.051248,185.747842 C13.051248,184.991932 12.769017,184.475985 12.064243,184.475985 C11.525641,184.475985 11.205325,184.824015 11.06421,185.160038 C11.012895,185.279925 10.999666,185.44803 10.999666,185.615947 L10.999666,189 L9.051315,189 L9.051315,185.00394 C9.051315,184.272045 9.025858,183.660038 9,183.131895 L10.69238,183.131895 L10.78218,183.947842 L10.820466,183.947842 C11.077039,183.56379 11.705041,183 12.75679,183 C14.038653,183 15,183.80394 15,185.531895 C15,185.531895 15,183.80394 15,185.531895 L15,189 L15,189 Z M6.981451,182 C6.385161,182 6,181.552721 6,181.000103 C6,180.434112 6.397592,180 7.006118,180 C7.615228,180 7.987958,180.434112 8,181.000103 C8,181.552721 7.615228,182 6.981451,182 L6.981451,182 L6.981451,182 Z M8,189 L6,189 L6,183 L8,183 L8,189 L8,189 Z M10,176 C5.029375,176 1,180.029562 1,185 C1,189.970813 5.029375,194 10,194 C14.971,194 19,189.970813 19,185 C19,180.029562 14.971,176 10,176 L10,176 L10,176 Z" id="Fill-252" fill="#2189C1" sketch:type="MSShapeGroup"></path>
                <path d="M35,189 L33.051248,189 L33.051248,185.747842 C33.051248,184.991932 32.769017,184.475985 32.064243,184.475985 C31.525641,184.475985 31.205325,184.824015 31.06421,185.160038 C31.012895,185.279925 30.999666,185.44803 30.999666,185.615947 L30.999666,189 L29.051315,189 L29.051315,185.00394 C29.051315,184.272045 29.025858,183.660038 29,183.131895 L30.69238,183.131895 L30.78218,183.947842 L30.820466,183.947842 C31.077039,183.56379 31.705041,183 32.75679,183 C34.038653,183 35,183.80394 35,185.531895 C35,185.531895 35,183.80394 35,185.531895 L35,189 L35,189 Z M26.981451,182 C26.385161,182 26,181.552721 26,181.000103 C26,180.434112 26.397592,180 27.006118,180 C27.615228,180 27.987958,180.434112 28,181.000103 C28,181.552721 27.615228,182 26.981451,182 L26.981451,182 L26.981451,182 Z M28,189 L26,189 L26,183 L28,183 L28,189 L28,189 Z M30,176 C25.029375,176 21,180.029562 21,185 C21,189.970813 25.029375,194 30,194 C34.971,194 39,189.970813 39,185 C39,180.029562 34.971,176 30,176 L30,176 L30,176 Z" id="Fill-252" fill="#7C7C7C" sketch:type="MSShapeGroup"></path>
                <path d="M15.3040879,104.352769 L11.3094615,108.184495 C11.083978,108.400451 10.7936703,108.508429 10.5033626,108.508429 C10.2128681,108.508429 9.92237363,108.400451 9.69726374,108.184495 L5.70207692,104.352769 C5.23784615,103.90778 5.22252747,103.170615 5.6677033,102.706571 C6.11287912,102.24178 6.84985714,102.226648 7.3139011,102.671824 L10.5033626,105.730516 L13.6918901,102.671824 C14.1561209,102.226648 14.8930989,102.242341 15.3382747,102.706011 C15.7832637,103.170615 15.7681319,103.907593 15.3040879,104.352769 L15.3040879,104.352769 Z M18.9000549,99.0143956 C18.679989,98.4078132 18.0976923,98 17.4524396,98 L3.54046154,98 C2.90585714,98 2.32710989,98.3992198 2.10106593,98.9932857 C2.034,99.1698242 2,99.3536484 2,99.5402747 L2,104.664934 L2.05847253,105.684 C2.30450549,108.002165 3.50776923,110.02778 5.36954945,111.440462 C5.4028022,111.465681 5.4368022,111.490714 5.4708022,111.515374 L5.49191209,111.530692 C6.49005495,112.260385 7.60738462,112.754132 8.81251648,112.997363 C9.36903297,113.110011 9.93787912,113.166989 10.502989,113.166989 C11.0249451,113.166989 11.5498901,113.118978 12.0651209,113.022956 C12.1271429,113.011374 12.1887912,112.999791 12.251,112.985967 C12.268,112.982791 12.2864945,112.975505 12.3055495,112.966725 C13.4593077,112.714154 14.5314286,112.232923 15.4922088,111.530692 L15.5133187,111.515374 C15.5473187,111.490714 15.5813187,111.465681 15.6149451,111.440462 C17.4765385,110.02778 18.679989,108.002165 18.9254615,105.684 L18.9841209,104.664934 L18.9841209,99.5402747 C18.9841209,99.362989 18.9628242,99.1871978 18.9000549,99.0143956 L18.9000549,99.0143956 Z" id="PocketMark_Small" fill="#DD3E51" sketch:type="MSShapeGroup"></path>
                <path d="M35.3040879,104.352769 L31.3094615,108.184495 C31.083978,108.400451 30.7936703,108.508429 30.5033626,108.508429 C30.2128681,108.508429 29.9223736,108.400451 29.6972637,108.184495 L25.7020769,104.352769 C25.2378462,103.90778 25.2225275,103.170615 25.6677033,102.706571 C26.1128791,102.24178 26.8498571,102.226648 27.3139011,102.671824 L30.5033626,105.730516 L33.6918901,102.671824 C34.1561209,102.226648 34.8930989,102.242341 35.3382747,102.706011 C35.7832637,103.170615 35.7681319,103.907593 35.3040879,104.352769 L35.3040879,104.352769 Z M38.9000549,99.0143956 C38.679989,98.4078132 38.0976923,98 37.4524396,98 L23.5404615,98 C22.9058571,98 22.3271099,98.3992198 22.1010659,98.9932857 C22.034,99.1698242 22,99.3536484 22,99.5402747 L22,104.664934 L22.0584725,105.684 C22.3045055,108.002165 23.5077692,110.02778 25.3695495,111.440462 C25.4028022,111.465681 25.4368022,111.490714 25.4708022,111.515374 L25.4919121,111.530692 C26.4900549,112.260385 27.6073846,112.754132 28.8125165,112.997363 C29.369033,113.110011 29.9378791,113.166989 30.502989,113.166989 C31.0249451,113.166989 31.5498901,113.118978 32.0651209,113.022956 C32.1271429,113.011374 32.1887912,112.999791 32.251,112.985967 C32.268,112.982791 32.2864945,112.975505 32.3055495,112.966725 C33.4593077,112.714154 34.5314286,112.232923 35.4922088,111.530692 L35.5133187,111.515374 C35.5473187,111.490714 35.5813187,111.465681 35.6149451,111.440462 C37.4765385,110.02778 38.679989,108.002165 38.9254615,105.684 L38.9841209,104.664934 L38.9841209,99.5402747 C38.9841209,99.362989 38.9628242,99.1871978 38.9000549,99.0143956 L38.9000549,99.0143956 Z" id="PocketMark_Small-2" fill="#7C7C7C" sketch:type="MSShapeGroup"></path>
                <path d="M37.3097833,205.261623 C36.0455417,205.81444 34.6880683,206.190356 33.267195,206.356202 C34.7179033,205.497492 35.8367,204.133875 36.362535,202.508592 C35.0013317,203.304648 33.494685,203.88695 31.891075,204.196528 C30.6081867,202.843968 28.7770883,202 26.7520667,202 C22.86611,202 19.7148317,205.114204 19.7148317,208.958128 C19.7148317,209.503575 19.7745,210.03428 19.8975683,210.542872 C14.0462583,210.251722 8.85876833,207.48395 5.38676833,203.275166 C4.78261667,204.299721 4.43579,205.497492 4.43579,206.772658 C4.43579,209.182942 5.677655,211.313131 7.56469333,212.562499 C6.41233167,212.525645 5.32709833,212.212381 4.37612167,211.692734 L4.37612167,211.777498 C4.37612167,215.149684 6.80391167,217.961683 10.0223183,218.599266 C9.433085,218.75774 8.81028833,218.842506 8.16884333,218.842506 C7.71386667,218.842506 7.27380667,218.801965 6.84493333,218.717201 C7.73997167,221.481287 10.33931,223.493543 13.4197317,223.548825 C11.0105883,225.417347 7.97491833,226.526668 4.67819667,226.526668 C4.11133833,226.526668 3.54821167,226.493499 3,226.430847 C6.11398667,228.402562 9.813475,229.556108 13.788935,229.556108 C26.7371483,229.556108 33.819135,218.956754 33.819135,209.761557 C33.819135,209.463036 33.8116767,209.160829 33.79676,208.862308 C35.17288,207.881978 36.3662633,206.658408 37.3097833,205.261623" id="Fill-211" fill="#2189C1" sketch:type="MSShapeGroup"></path>
                <g id="Rectangle-40-+-Fill-6-3" transform="translate(5.000000, 240.000000)" sketch:type="MSShapeGroup">
                    <rect id="Rectangle-40" fill="#3C5A98" x="0" y="0" width="30" height="30" rx="4"></rect>
                    <path d="M14.0335564,30.1742276 L14.0335564,18.66015 L10.7401454,18.66015 L10.7401454,14.5145988 L14.0335564,14.5145988 L14.0335564,10.973733 C14.0335564,8.19124064 15.9790139,5.63603661 20.461867,5.63603661 C22.2768851,5.63603661 23.6190306,5.79688338 23.6190306,5.79688338 L23.5132755,9.66816734 C23.5132755,9.66816734 22.1445098,9.65586335 20.6508708,9.65586335 C19.0342947,9.65586335 18.7753521,10.3444396 18.7753521,11.4875925 L18.7753521,14.5145988 L23.6417789,14.5145988 L23.4300267,18.66015 L18.7753521,18.66015 L18.7753521,30.1742276 L14.0335564,30.1742276 L14.0335564,30.1742276 Z" id="Fill-6-3" fill="#FFFFFF"></path>
                </g>
                <path d="M8.99886732,309.967692 C6.79169026,309.967692 5,308.186154 5,305.983077 C5,303.783077 6.79169026,302.001538 8.99886732,302.001538 C11.2060444,302.001538 12.9977346,303.783077 12.9977346,305.983077 C12.9977346,308.184615 11.2060444,309.967692 8.99886732,309.967692 L8.99886732,309.967692 Z M19.0307882,309.995385 C19.0307882,306.235385 17.5711785,302.704615 14.919168,300.050769 C12.2733357,297.403077 8.75328219,295.944615 5.00463368,295.944615 L5.00463368,290.192308 C15.9200432,290.192308 24.8028111,299.076923 24.8028111,309.995385 L19.0307882,309.995385 L19.0307882,309.995385 Z M29.2295217,310 C29.2295217,296.629231 18.3650826,285.750769 5.01235648,285.750769 L5.01235648,280 C21.548422,280 35,293.458462 35,310 L29.2295217,310 L29.2295217,310 Z" id="Shape" fill="#F89614" sketch:type="MSShapeGroup"></path>
            </g>
        </g>
    </g>
</svg>