<?xml version="1.0" encoding="utf-8"?>
<!-- Generator: Adobe Illustrator 16.0.0, SVG Export Plug-In . SVG Version: 6.00 Build 0)  -->
<!DOCTYPE svg PUBLIC "-//W3C//DTD SVG 1.1//EN" "http://www.w3.org/Graphics/SVG/1.1/DTD/svg11.dtd">
<svg version="1.1" id="Layer_1" xmlns:sketch="http://www.bohemiancoding.com/sketch/ns"
	 xmlns="http://www.w3.org/2000/svg" xmlns:xlink="http://www.w3.org/1999/xlink" x="0px" y="0px" width="150px" height="150px"
	 viewBox="0 0 150 150" enable-background="new 0 0 150 150" xml:space="preserve">
<title>Slice 1</title>
<description>Created with Sketch (http://www.bohemiancoding.com/sketch)</description>
<g id="Page-1" sketch:type="MSPage">
	<g id="Artboard-2" transform="translate(-390.000000, -165.000000)" sketch:type="MSArtboardGroup">
		<g id="Group" transform="translate(503.309735, 165.000000)" sketch:type="MSLayerGroup">
			<path id="Shape" sketch:type="MSShapeGroup" fill="#0079C1" d="M35.53,17.798c0-1.48-0.617-2.812-1.602-3.735
				c0.545,0.517,0.864,1.122,0.864,1.804c0,0.646-0.297,1.464-0.79,1.93c-0.677,0.628-1.828,1.005-2.758,1.005
				c-3.595,0.002-7.866-2.194-10.827-5.571c-0.728,1.269-1.604,2.501-2.625,3.636c3.748,3.823,8.882,5.979,12.862,5.979
				C33.356,22.846,35.53,20.584,35.53,17.798L35.53,17.798z M15.19,13.198c-1.58-2.772-2.434-5.72-2.434-8.213
				c0-1.266,0.504-2.415,1.323-3.278c0.517-0.538,1.118-0.854,1.798-0.854c0.647,0,1.467,0.294,1.936,0.788c0,0-0.002,0,0,0
				c-0.629,0.676-1.004,1.831-1.006,2.756c0,1.441,0.361,3.009,1.006,4.539C17.188,10.414,16.296,11.871,15.19,13.198L15.19,13.198z
				"/>
			<path id="Shape_1_" sketch:type="MSShapeGroup" fill="#E31837" d="M17.813,0.116c-1.482,0-2.816,0.617-3.741,1.599
				c0.517-0.544,1.123-0.863,1.808-0.863c0.648,0,1.467,0.295,1.934,0.788c0.63,0.675,1.007,1.826,1.007,2.752
				c0.002,3.587-2.199,7.851-5.582,10.806c1.271,0.726,2.506,1.602,3.644,2.62c3.83-3.741,5.991-8.864,5.991-12.838
				C22.872,2.287,20.606,0.116,17.813,0.116L17.813,0.116z M13.205,20.417c-2.778,1.577-5.731,2.429-8.229,2.429
				c-1.268,0-2.418-0.503-3.285-1.321c-0.538-0.514-0.854-1.116-0.854-1.795c0-0.646,0.296-1.464,0.789-1.93l0,0
				c0.679,0.627,1.835,1.002,2.763,1.003c1.442,0,3.015-0.361,4.547-1.003C10.417,18.422,11.876,19.314,13.205,20.417L13.205,20.417
				z"/>
			<path id="Shape_2_" sketch:type="MSShapeGroup" fill="#FFC425" d="M0.098,17.798c0,1.48,0.617,2.812,1.603,3.735
				c-0.545-0.516-0.865-1.121-0.865-1.804c0-0.646,0.296-1.464,0.79-1.93c0.678-0.628,1.829-1.004,2.758-1.004
				c3.594-0.002,7.866,2.194,10.827,5.571c0.728-1.269,1.604-2.501,2.625-3.636c-3.747-3.823-8.882-5.979-12.862-5.979
				C2.272,12.75,0.098,15.012,0.098,17.798L0.098,17.798z M20.438,22.398c1.578,2.773,2.434,5.72,2.434,8.213
				c0,1.266-0.504,2.415-1.324,3.278c-0.516,0.538-1.119,0.854-1.799,0.854c-0.646,0-1.467-0.294-1.934-0.788c-0.002,0,0,0,0,0
				c0.629-0.676,1.004-1.831,1.005-2.756c0-1.441-0.361-3.009-1.005-4.539C18.438,25.182,19.333,23.725,20.438,22.398L20.438,22.398
				z"/>
			<path id="Shape_3_" sketch:type="MSShapeGroup" fill="#49A942" d="M17.813,35.479c1.482,0,2.818-0.617,3.742-1.598
				c-0.519,0.543-1.123,0.863-1.808,0.863c-0.647,0-1.467-0.295-1.935-0.788c-0.629-0.675-1.008-1.826-1.008-2.752
				c-0.002-3.587,2.199-7.851,5.584-10.806c-1.271-0.726-2.506-1.602-3.645-2.62c-3.83,3.741-5.99,8.864-5.99,12.837
				C12.757,33.309,15.022,35.479,17.813,35.479L17.813,35.479z M22.423,15.179c2.778-1.576,5.73-2.429,8.229-2.429
				c1.268,0,2.419,0.503,3.284,1.321c0.539,0.514,0.856,1.116,0.856,1.795c0,0.646-0.296,1.464-0.791,1.931c0,0,0.001-0.001,0,0
				c-0.676-0.627-1.834-1.003-2.76-1.003c-1.444,0-3.017,0.361-4.549,1.003C25.212,17.173,23.753,16.282,22.423,15.179
				L22.423,15.179z"/>
			<path id="Shape_4_" sketch:type="MSShapeGroup" opacity="0.6" enable-background="new    " d="M15.19,13.198
				c1.104-1.327,1.998-2.784,2.623-4.263c-0.26-0.619-0.475-1.249-0.637-1.869c-0.277,1.649-0.933,3.582-2.283,5.591
				C14.988,12.836,15.089,13.02,15.19,13.198L15.19,13.198z"/>
			<path id="Shape_5_" sketch:type="MSShapeGroup" opacity="0.6" enable-background="new    " d="M14.673,1.215
				c0.369-0.233,0.771-0.362,1.206-0.363c0.647,0,1.468,0.294,1.935,0.788c0,0-0.002,0,0,0c-0.305,0.328-0.549,0.771-0.721,1.242
				C16.614,1.408,15.557,0.85,14.673,1.215C14.675,1.213,14.673,1.216,14.673,1.215L14.673,1.215z"/>
			<path id="Shape_6_" sketch:type="MSShapeGroup" opacity="0.5" enable-background="new    " d="M12.663,20.714
				c-2.014-1.349-3.949-2.003-5.602-2.28c0.621-0.162,1.252-0.375,1.871-0.635c1.483,0.624,2.942,1.515,4.272,2.618
				C13.026,20.519,12.843,20.618,12.663,20.714L12.663,20.714z"/>
			<path id="Shape_7_" sketch:type="MSShapeGroup" opacity="0.5" enable-background="new    " d="M1.198,20.933
				c-0.232-0.369-0.363-0.77-0.363-1.203c0-0.646,0.295-1.464,0.789-1.931c0,0,0,0.001,0,0c0.329,0.305,0.771,0.548,1.244,0.72
				C1.391,18.996,0.833,20.05,1.198,20.933C1.198,20.931,1.2,20.935,1.198,20.933L1.198,20.933z"/>
			<path id="Shape_8_" sketch:type="MSShapeGroup" opacity="0.5" enable-background="new    " d="M20.735,22.938
				c-1.352,2.01-2.008,3.942-2.285,5.592c-0.162-0.62-0.375-1.25-0.635-1.869c0.623-1.479,1.518-2.937,2.623-4.264
				C20.54,22.577,20.639,22.759,20.735,22.938L20.735,22.938z"/>
			<path id="Shape_9_" sketch:type="MSShapeGroup" opacity="0.5" enable-background="new    " d="M20.954,34.381
				c-0.368,0.233-0.771,0.362-1.205,0.362c-0.646,0-1.467-0.294-1.934-0.788c-0.002,0,0,0,0,0c0.305-0.328,0.549-0.77,0.721-1.242
				C19.014,34.188,20.069,34.747,20.954,34.381C20.953,34.382,20.956,34.38,20.954,34.381L20.954,34.381z"/>
			<path id="Shape_10_" sketch:type="MSShapeGroup" opacity="0.6" enable-background="new    " d="M22.966,14.882
				c2.014,1.349,3.949,2.004,5.603,2.281c-0.621,0.162-1.253,0.375-1.872,0.634c-1.482-0.624-2.942-1.515-4.271-2.618
				C22.6,15.078,22.785,14.978,22.966,14.882L22.966,14.882z"/>
			<path id="Shape_11_" sketch:type="MSShapeGroup" opacity="0.6" enable-background="new    " d="M34.431,14.664
				c0.232,0.368,0.361,0.77,0.363,1.203c0,0.646-0.296,1.465-0.791,1.931c0,0.001,0.001,0,0,0c-0.328-0.304-0.771-0.547-1.242-0.719
				C34.237,16.601,34.796,15.546,34.431,14.664C34.431,14.666,34.429,14.662,34.431,14.664L34.431,14.664z"/>
		</g>
		<g id="Group_1_" transform="translate(391.654867, 239.509804)" sketch:type="MSLayerGroup">
			<path id="Shape_12_" sketch:type="MSShapeGroup" fill="#FFFFFF" d="M13.174,7.102h2.22L9.14,24.941H6.512L0.221,7.102h2.258
				l5.366,15.957L13.174,7.102L13.174,7.102z"/>
			<path id="Shape_13_" sketch:type="MSShapeGroup" fill="#FFFFFF" d="M24.126,23.465c2.517,0,4.33-1.292,4.848-4.689l2.073,0.332
				c-0.629,4.322-3.331,6.279-6.92,6.279c-4.626,0-7.438-3.141-7.438-9.529c0-5.65,2.479-9.196,7.216-9.196
				c4.958,0,7.179,3.952,7.179,9.086v0.592H18.798C18.797,21.286,20.944,23.465,24.126,23.465L24.126,23.465z M28.863,14.49v-0.074
				c-0.148-3.324-1.85-5.836-4.959-5.836c-3.108,0-4.885,2.29-5.107,5.91H28.863L28.863,14.49z"/>
			<path id="Shape_14_" sketch:type="MSShapeGroup" fill="#FFFFFF" d="M41.926,6.66c3.886,0,5.996,1.771,5.996,5.503v12.778H45.85
				V12.459c0-2.809-1.443-3.879-4.219-3.879c-2.257,0-4.404,1.662-5.255,3.509v12.854h-2.073V7.102h2.073v2.401
				C37.485,7.989,39.853,6.66,41.926,6.66L41.926,6.66z"/>
			<path id="Shape_15_" sketch:type="MSShapeGroup" fill="#FFFFFF" d="M58.763,24.832c-0.481,0.184-1.406,0.332-2.332,0.332
				c-2.886,0-3.812-1.402-3.812-4.211V8.949h-2.59V7.103h2.59V1.156l2.073-0.886v6.833h4.071v1.846h-4.071v11.746
				c0,1.994,0.407,2.512,2.036,2.512c0.777,0,1.48-0.148,2.035-0.406V24.832L58.763,24.832z"/>
			<path id="Shape_16_" sketch:type="MSShapeGroup" fill="#FFFFFF" d="M67.939,25.387c-3.885,0-5.995-1.772-5.995-5.504V7.103h2.072
				v12.483c0,2.808,1.443,3.877,4.219,3.877c2.257,0,4.403-1.661,5.255-3.508V7.103h2.073v17.84H73.49v-2.401
				C72.38,24.057,70.012,25.387,67.939,25.387L67.939,25.387z"/>
			<path id="Shape_17_" sketch:type="MSShapeGroup" fill="#FFFFFF" d="M85.628,8.803c-1.963,0-4.072,1.883-4.221,3.914v12.227
				h-2.072V7.102h2.072V9.91c0.557-1.662,2.666-3.25,4.33-3.25c0.37,0,0.813,0.036,1.11,0.146v2.143
				C86.516,8.839,86.183,8.803,85.628,8.803L85.628,8.803z"/>
			<path id="Shape_18_" sketch:type="MSShapeGroup" fill="#FFFFFF" d="M94.99,23.465c2.516,0,4.33-1.292,4.848-4.689l2.072,0.332
				c-0.629,4.322-3.33,6.279-6.92,6.279c-4.625,0-7.438-3.141-7.438-9.529c0-5.65,2.479-9.196,7.217-9.196
				c4.959,0,7.181,3.952,7.181,9.086v0.592H89.662C89.662,21.286,91.807,23.465,94.99,23.465L94.99,23.465z M99.726,14.49v-0.074
				c-0.148-3.324-1.85-5.836-4.959-5.836s-4.885,2.29-5.107,5.91H99.726L99.726,14.49z"/>
			<path id="Shape_19_" sketch:type="MSShapeGroup" fill="#FFFFFF" d="M110.938,25.387c-3.44,0-6.513-1.996-6.92-5.727l2.108-0.295
				c0.334,2.771,2.369,4.137,4.886,4.137c3.331,0,4.552-1.514,4.552-3.25c0-5.134-10.954-1.847-10.954-8.977
				c0-2.844,2.517-4.615,6.181-4.615s6.068,1.771,6.551,5.613l-2.072,0.259c-0.296-2.771-1.962-3.989-4.516-3.989
				c-2.553,0-4.069,1.071-4.069,2.623c0,5.244,10.953,1.994,10.953,8.975C117.636,23.207,115.305,25.387,110.938,25.387
				L110.938,25.387z"/>
		</g>
		<path id="Shape_20_" sketch:type="MSShapeGroup" fill="#FFFFFF" d="M435.821,236.644l-0.747,0.703
			c-0.172,0.093-0.343,0.203-0.515,0.281c-0.515,0.232-1.045,0.294-1.514,0.294c-0.498,0-1.278-0.031-2.074-0.607
			c-1.107-0.779-1.592-2.117-1.592-3.285c0-2.413,1.965-3.597,3.573-3.597c0.562,0,1.14,0.14,1.606,0.437
			c0.781,0.512,0.983,1.183,1.092,1.541l-3.665,1.479l-1.202,0.093c0.389,1.977,1.731,3.13,3.213,3.13
			c0.741,0,1.292-0.243,1.792-0.489C435.791,236.624,435.894,236.571,435.821,236.644L435.821,236.644z M433.607,232.707
			c0.297-0.109,0.454-0.202,0.454-0.421c0-0.624-0.702-1.339-1.546-1.339c-0.624,0-1.794,0.485-1.794,2.165
			c0,0.264,0.031,0.546,0.047,0.825L433.607,232.707L433.607,232.707z M428.154,227.69c0.062-0.543,0.208-0.712,0.691-0.992h-2.23
			l-1.17,0.559h1.216l0.004,9.261v0.347c0,0.31-0.062,0.356-0.421,0.826h2.749l0.579-0.345c-0.266-0.032-0.531-0.047-0.797-0.077
			c-0.514-0.048-0.624-0.141-0.624-0.748L428.154,227.69L428.154,227.69z M423.889,231.195c0.358,0.298,1.108,0.919,1.108,2.104
			c0,1.153-0.655,1.698-1.311,2.211c-0.203,0.202-0.436,0.42-0.436,0.763c0,0.344,0.233,0.529,0.405,0.669l0.562,0.436
			c0.687,0.577,1.311,1.105,1.311,2.18c0,1.463-1.42,2.944-4.103,2.944c-2.261,0-3.354-1.074-3.354-2.228
			c0-0.561,0.281-1.354,1.203-1.9c0.967-0.591,2.277-0.669,2.979-0.714c-0.218-0.282-0.468-0.578-0.468-1.061
			c0-0.264,0.078-0.419,0.157-0.607c-0.172,0.015-0.343,0.031-0.499,0.031c-1.653,0-2.591-1.23-2.591-2.444
			c0-0.715,0.329-1.511,0.998-2.085c0.891-0.732,1.952-0.857,2.794-0.857h3.212l-0.998,0.56L423.889,231.195L423.889,231.195z
			 M422.781,238.11c-0.125-0.017-0.204-0.017-0.36-0.017c-0.14,0-0.982,0.032-1.637,0.249c-0.343,0.125-1.341,0.499-1.341,1.605
			c0,1.104,1.075,1.897,2.744,1.897c1.499,0,2.294-0.715,2.294-1.681C424.481,239.372,423.967,238.951,422.781,238.11
			L422.781,238.11z M423.233,235.151c0.359-0.358,0.39-0.856,0.39-1.135c0-1.122-0.671-2.866-1.967-2.866
			c-0.405,0-0.842,0.201-1.091,0.512c-0.266,0.329-0.343,0.749-0.343,1.153c0,1.043,0.607,2.771,1.95,2.771
			C422.563,235.587,422.985,235.4,423.233,235.151L423.233,235.151z M414.216,237.892c-2.48,0-3.806-1.932-3.806-3.674
			c0-2.04,1.669-3.784,4.041-3.784c2.294,0,3.729,1.792,3.729,3.675C418.179,235.945,416.759,237.892,414.216,237.892
			L414.216,237.892z M416.167,236.63c0.374-0.497,0.468-1.121,0.468-1.729c0-1.37-0.656-3.984-2.59-3.984
			c-0.515,0-1.03,0.202-1.403,0.528c-0.609,0.546-0.718,1.231-0.718,1.9c0,1.541,0.765,4.078,2.652,4.078
			C415.184,237.424,415.807,237.128,416.167,236.63L416.167,236.63z M405.917,237.892c-2.48,0-3.806-1.932-3.806-3.674
			c0-2.04,1.669-3.784,4.04-3.784c2.293,0,3.728,1.792,3.728,3.675C409.878,235.945,408.461,237.892,405.917,237.892
			L405.917,237.892z M407.866,236.63c0.375-0.497,0.468-1.121,0.468-1.729c0-1.37-0.655-3.984-2.588-3.984
			c-0.516,0-1.031,0.202-1.404,0.528c-0.609,0.546-0.718,1.231-0.718,1.9c0,1.541,0.765,4.078,2.653,4.078
			C406.883,237.424,407.508,237.128,407.866,236.63L407.866,236.63z M401.119,235.568c0-0.147,0.013-0.57,0.028-0.701
			c0.03-0.117,0.045-0.149,0.147-0.235l0.38-0.364h-3.1l-1.17,0.628l2.208-0.118v2.352c-0.438,0.174-0.92,0.364-1.856,0.364
			c-3.189,0-5.178-2.582-5.178-5.328c0-2.554,1.74-4.305,4.051-4.305c1.726,0,2.633,0.89,3.13,1.372l-0.365,0.583l0.512-0.116
			l1.214-1.154c-0.322-0.218-0.833-0.599-1.93-0.904c-0.688-0.191-1.449-0.308-2.238-0.308c-3.73,0-5.909,2.628-5.909,5.461
			c0,2.321,1.535,5.285,5.572,5.285c0.803,0,1.565-0.119,2.413-0.25l2.092-0.481L401.119,235.568L401.119,235.568z"/>
		<g id="Group-copy" transform="translate(391.654867, 284.509804)" sketch:type="MSLayerGroup">
			<path id="Shape_21_" sketch:type="MSShapeGroup" fill="#231F20" d="M13.174,7.103h2.22L9.14,24.941H6.512L0.221,7.103h2.258
				l5.366,15.955L13.174,7.103L13.174,7.103z"/>
			<path id="Shape_22_" sketch:type="MSShapeGroup" fill="#231F20" d="M24.126,23.465c2.517,0,4.33-1.293,4.848-4.689l2.073,0.332
				c-0.629,4.322-3.331,6.279-6.92,6.279c-4.626,0-7.438-3.141-7.438-9.529c0-5.65,2.479-9.196,7.216-9.196
				c4.958,0,7.179,3.952,7.179,9.086v0.592H18.798C18.797,21.286,20.944,23.465,24.126,23.465L24.126,23.465z M28.863,14.49v-0.074
				c-0.148-3.324-1.85-5.836-4.959-5.836c-3.108,0-4.885,2.29-5.107,5.91H28.863L28.863,14.49z"/>
			<path id="Shape_23_" sketch:type="MSShapeGroup" fill="#231F20" d="M41.926,6.66c3.886,0,5.996,1.771,5.996,5.503v12.778H45.85
				V12.459c0-2.809-1.443-3.879-4.219-3.879c-2.257,0-4.404,1.662-5.255,3.509v12.854h-2.073V7.103h2.073v2.4
				C37.485,7.989,39.853,6.66,41.926,6.66L41.926,6.66z"/>
			<path id="Shape_24_" sketch:type="MSShapeGroup" fill="#231F20" d="M58.763,24.832c-0.481,0.184-1.406,0.332-2.332,0.332
				c-2.886,0-3.812-1.404-3.812-4.211V8.949h-2.59V7.103h2.59V1.156l2.073-0.887v6.834h4.071v1.846h-4.071v11.746
				c0,1.994,0.407,2.512,2.036,2.512c0.777,0,1.48-0.148,2.035-0.406V24.832L58.763,24.832z"/>
			<path id="Shape_25_" sketch:type="MSShapeGroup" fill="#231F20" d="M67.939,25.386c-3.885,0-5.995-1.771-5.995-5.503V7.103h2.072
				v12.483c0,2.808,1.443,3.877,4.219,3.877c2.257,0,4.403-1.662,5.255-3.508V7.103h2.073v17.84H73.49v-2.401
				C72.38,24.057,70.012,25.386,67.939,25.386L67.939,25.386z"/>
			<path id="Shape_26_" sketch:type="MSShapeGroup" fill="#231F20" d="M85.628,8.802c-1.963,0-4.072,1.884-4.221,3.915v12.227
				h-2.072V7.103h2.072V9.91c0.557-1.662,2.666-3.25,4.33-3.25c0.37,0,0.813,0.035,1.11,0.146v2.143
				C86.516,8.839,86.183,8.802,85.628,8.802L85.628,8.802z"/>
			<path id="Shape_27_" sketch:type="MSShapeGroup" fill="#231F20" d="M94.99,23.465c2.516,0,4.33-1.293,4.848-4.689l2.072,0.332
				c-0.629,4.322-3.33,6.279-6.92,6.279c-4.625,0-7.438-3.141-7.438-9.529c0-5.65,2.479-9.196,7.217-9.196
				c4.959,0,7.181,3.952,7.181,9.086v0.592H89.662C89.662,21.286,91.807,23.465,94.99,23.465L94.99,23.465z M99.726,14.49v-0.074
				c-0.148-3.324-1.85-5.836-4.959-5.836s-4.885,2.29-5.107,5.91H99.726L99.726,14.49z"/>
			<path id="Shape_28_" sketch:type="MSShapeGroup" fill="#231F20" d="M110.938,25.386c-3.44,0-6.513-1.995-6.92-5.726l2.108-0.295
				c0.334,2.771,2.369,4.137,4.886,4.137c3.331,0,4.552-1.514,4.552-3.25c0-5.134-10.954-1.847-10.954-8.977
				c0-2.844,2.517-4.615,6.181-4.615s6.068,1.771,6.551,5.613l-2.072,0.259c-0.296-2.771-1.962-3.989-4.516-3.989
				c-2.553,0-4.069,1.071-4.069,2.623c0,5.244,10.953,1.994,10.953,8.975C117.636,23.207,115.305,25.386,110.938,25.386
				L110.938,25.386z"/>
		</g>
		<path id="Shape-copy" sketch:type="MSShapeGroup" fill="#231F20" d="M435.821,281.645l-0.747,0.703
			c-0.172,0.092-0.343,0.201-0.515,0.28c-0.515,0.231-1.045,0.294-1.514,0.294c-0.498,0-1.278-0.031-2.074-0.607
			c-1.107-0.778-1.592-2.116-1.592-3.284c0-2.412,1.965-3.597,3.573-3.597c0.562,0,1.14,0.141,1.606,0.437
			c0.781,0.512,0.983,1.185,1.092,1.541l-3.665,1.479l-1.202,0.092c0.389,1.978,1.731,3.131,3.213,3.131
			c0.741,0,1.292-0.243,1.792-0.489C435.791,281.624,435.894,281.571,435.821,281.645L435.821,281.645z M433.607,277.707
			c0.297-0.109,0.454-0.201,0.454-0.421c0-0.624-0.702-1.339-1.546-1.339c-0.624,0-1.794,0.484-1.794,2.164
			c0,0.265,0.031,0.547,0.047,0.826L433.607,277.707L433.607,277.707z M428.154,272.689c0.062-0.543,0.208-0.711,0.691-0.991h-2.23
			l-1.17,0.56h1.216l0.004,9.262v0.347c0,0.311-0.062,0.355-0.421,0.825h2.749l0.579-0.345c-0.266-0.032-0.531-0.047-0.797-0.077
			c-0.514-0.048-0.624-0.141-0.624-0.748L428.154,272.689L428.154,272.689z M423.889,276.195c0.358,0.298,1.108,0.92,1.108,2.104
			c0,1.152-0.655,1.697-1.311,2.211c-0.203,0.202-0.436,0.422-0.436,0.764c0,0.345,0.233,0.528,0.405,0.67l0.562,0.437
			c0.687,0.576,1.311,1.104,1.311,2.181c0,1.463-1.42,2.942-4.103,2.942c-2.261,0-3.354-1.073-3.354-2.228
			c0-0.562,0.281-1.354,1.203-1.899c0.967-0.592,2.277-0.67,2.979-0.715c-0.218-0.281-0.468-0.577-0.468-1.062
			c0-0.264,0.078-0.418,0.157-0.606c-0.172,0.016-0.343,0.03-0.499,0.03c-1.653,0-2.591-1.229-2.591-2.442
			c0-0.716,0.329-1.512,0.998-2.086c0.891-0.731,1.952-0.856,2.794-0.856h3.212l-0.998,0.56L423.889,276.195L423.889,276.195z
			 M422.781,283.109c-0.125-0.017-0.204-0.017-0.36-0.017c-0.14,0-0.982,0.031-1.637,0.249c-0.343,0.125-1.341,0.498-1.341,1.604
			c0,1.104,1.075,1.898,2.744,1.898c1.499,0,2.294-0.715,2.294-1.681C424.481,284.372,423.967,283.951,422.781,283.109
			L422.781,283.109z M423.233,280.15c0.359-0.357,0.39-0.855,0.39-1.135c0-1.123-0.671-2.865-1.967-2.865
			c-0.405,0-0.842,0.201-1.091,0.512c-0.266,0.329-0.343,0.748-0.343,1.152c0,1.043,0.607,2.771,1.95,2.771
			C422.563,280.587,422.985,280.4,423.233,280.15L423.233,280.15z M414.216,282.893c-2.48,0-3.806-1.933-3.806-3.676
			c0-2.039,1.669-3.783,4.041-3.783c2.294,0,3.729,1.791,3.729,3.676C418.179,280.945,416.759,282.893,414.216,282.893
			L414.216,282.893z M416.167,281.631c0.374-0.498,0.468-1.121,0.468-1.729c0-1.37-0.656-3.984-2.59-3.984
			c-0.515,0-1.03,0.201-1.403,0.527c-0.609,0.547-0.718,1.229-0.718,1.899c0,1.541,0.765,4.078,2.652,4.078
			C415.184,282.424,415.807,282.129,416.167,281.631L416.167,281.631z M405.917,282.893c-2.48,0-3.806-1.933-3.806-3.676
			c0-2.039,1.669-3.783,4.04-3.783c2.293,0,3.728,1.791,3.728,3.676C409.878,280.945,408.461,282.893,405.917,282.893
			L405.917,282.893z M407.866,281.631c0.375-0.498,0.468-1.121,0.468-1.729c0-1.37-0.655-3.984-2.588-3.984
			c-0.516,0-1.031,0.201-1.404,0.527c-0.609,0.547-0.718,1.229-0.718,1.899c0,1.541,0.765,4.078,2.653,4.078
			C406.883,282.424,407.508,282.129,407.866,281.631L407.866,281.631z M401.119,280.568c0-0.146,0.013-0.57,0.028-0.701
			c0.03-0.117,0.045-0.149,0.147-0.234l0.38-0.365h-3.1l-1.17,0.629l2.208-0.117v2.352c-0.438,0.176-0.92,0.364-1.856,0.364
			c-3.189,0-5.178-2.582-5.178-5.328c0-2.556,1.74-4.306,4.051-4.306c1.726,0,2.633,0.89,3.13,1.371l-0.365,0.584l0.512-0.116
			l1.214-1.154c-0.322-0.219-0.833-0.599-1.93-0.903c-0.688-0.191-1.449-0.309-2.238-0.309c-3.73,0-5.909,2.628-5.909,5.461
			c0,2.321,1.535,5.285,5.572,5.285c0.803,0,1.565-0.118,2.413-0.251l2.092-0.479L401.119,280.568L401.119,280.568z"/>
	</g>
</g>
</svg>
